<?xml version="1.0" encoding="UTF-8"?>
<svg id="Layer_2" data-name="Layer 2" xmlns="http://www.w3.org/2000/svg" viewBox="0 0 505.62 90">
  <defs>
    <style>
      .cls-1 {
        fill: #fff;
      }

      .cls-2 {
        fill: #55b56c;
      }
    </style>
  </defs>
  <g id="Layer_1-2" data-name="Layer 1">
    <g>
      <path class="cls-1" d="M78.21,32.97c0,11.83-4.47,19.92-9.36,25.33-5.57,6.17-11.8,13.12-26.15,14.16h-23.47v-19.74h22.83c6.29,0,11.46.91,15.59,6.77,2.09-1.75,3.92-3.76,5.84-5.88,1.77-1.96,3.19-4.11,4.33-6.39-2.99-2.06-6.39-3.64-8.32-4.38,6.41-3.59,11.8-9.23,11.8-19.37,0-6.41-2.05-11.41-6.16-15.52C60.01,2.82,51.94,0,41.67,0H0v17.31h38.72c8.34,0,12.95,3.33,12.95,9.23,0,6.93-5.51,9.75-14.23,9.75h-18.21s-19.24,0-19.24,0v53.47h42.7c23.25,0,35.05-14.87,40.59-21.09,7.08-7.96,14.66-20.44,14.66-38.68v-2.97h-19.75v5.93Z"/>
      <path class="cls-2" d="M87.72,74.65c-2.24,2.55-5.36,6.07-9.51,9.56v5.78h19.75v-29.84c-2.48,4.76-5.58,9.27-9.35,13.49l-.89,1.01Z"/>
      <path class="cls-2" d="M79.19,6.5h0c-3.54,5.75-2.69,12.69,1.89,15.51h0c4.58,2.82,11.16.44,14.69-5.31h0c3.54-5.75,2.69-12.69-1.89-15.51h0c-4.58-2.82-11.16-.44-14.69,5.31Z"/>
    </g>
    <g>
      <path class="cls-1" d="M167.56,59.62c-1.83-2.36-4.21-4.14-7.16-5.37,1.88-1.06,3.45-2.53,4.72-4.39,1.87-2.75,2.81-5.95,2.81-9.61,0-3.14-.75-6.05-2.28-8.75-1.51-2.71-3.7-4.9-6.56-6.55-2.86-1.65-6.31-2.49-10.33-2.49h-26.32v67.53h28.66c4.13,0,7.7-.79,10.72-2.38,3.02-1.6,5.33-3.84,6.93-6.71,1.61-2.88,2.42-6.29,2.42-10.23,0-4.29-1.2-7.98-3.61-11.06ZM130.88,30.35h17.77c3.19,0,5.77.93,7.74,2.77,1.97,1.84,2.96,4.22,2.96,7.13,0,2.09-.48,3.92-1.44,5.48-.95,1.57-2.24,2.78-3.84,3.64-1.61.86-3.41,1.3-5.42,1.3h-17.77v-20.31ZM160.88,76.73c-1.15,1.69-2.7,3-4.67,3.92-1.97.93-4.21,1.39-6.71,1.39h-18.62v-23.5h19.56c2.41,0,4.53.54,6.35,1.61,1.84,1.09,3.26,2.53,4.27,4.34,1.02,1.81,1.52,3.86,1.52,6.15s-.57,4.41-1.71,6.09Z"/>
      <path class="cls-1" d="M223.13,65.61c.25-6.01-.53-11.18-2.32-15.53-1.8-4.34-4.5-7.69-8.07-10.03-3.59-2.34-7.93-3.52-13.02-3.52s-9.18,1.1-12.82,3.31c-3.64,2.2-6.48,5.33-8.51,9.38-2.04,4.05-3.06,8.84-3.06,14.37s1.03,9.91,3.1,13.87c2.06,3.96,4.95,7.03,8.65,9.24,3.7,2.2,8.04,3.31,13.02,3.31s9.34-1.23,13.3-3.69c3.94-2.45,6.91-5.91,8.88-10.39l-8.02-2.77c-1.4,2.88-3.35,5.08-5.81,6.62-2.47,1.53-5.39,2.3-8.73,2.3-4.96,0-8.8-1.64-11.49-4.92-2.33-2.84-3.65-6.68-3.96-11.54h38.85ZM184.46,58.91c.5-4.12,1.76-7.41,3.78-9.9,2.69-3.32,6.62-4.98,11.78-4.98,4.8,0,8.44,1.55,10.88,4.62,1.92,2.43,3.12,5.85,3.59,10.25h-30.02Z"/>
      <path class="cls-1" d="M250.33,90c-6.03,0-10.98-1.32-14.84-3.96-3.86-2.64-6.23-6.34-7.11-11.09l8.54-1.36c.69,2.75,2.27,4.93,4.74,6.54,2.47,1.61,5.53,2.42,9.19,2.42s6.19-.72,8.16-2.16c1.97-1.44,2.95-3.39,2.95-5.86,0-1.44-.33-2.6-.98-3.49-.66-.89-2.01-1.73-4.06-2.51-2.05-.78-5.14-1.72-9.26-2.81-4.47-1.19-7.99-2.42-10.55-3.7-2.56-1.28-4.39-2.77-5.49-4.46-1.1-1.69-1.64-3.74-1.64-6.14,0-2.97.81-5.57,2.44-7.81,1.63-2.23,3.9-3.96,6.82-5.18,2.92-1.22,6.32-1.83,10.2-1.83s7.28.61,10.32,1.83c3.03,1.22,5.48,2.95,7.34,5.18,1.86,2.24,2.96,4.84,3.31,7.81l-8.54,1.55c-.41-2.72-1.71-4.86-3.92-6.43-2.2-1.56-5.04-2.39-8.51-2.49-3.28-.12-5.95.45-8,1.74-2.05,1.28-3.07,3.02-3.07,5.21,0,1.22.38,2.27,1.15,3.14.77.88,2.19,1.7,4.27,2.49,2.08.78,5.1,1.67,9.07,2.67,4.47,1.13,8,2.35,10.58,3.68,2.58,1.33,4.42,2.89,5.51,4.69,1.09,1.8,1.64,4.01,1.64,6.64,0,4.88-1.8,8.72-5.39,11.51-3.6,2.8-8.55,4.2-14.87,4.2Z"/>
      <path class="cls-1" d="M291.61,45.49v24.25c0,2.06.03,3.82.07,5.29.05,1.48.37,2.74.97,3.81,1.12,2,2.91,3.16,5.37,3.51,2.45.34,5.41.25,8.88-.28v7.17c-3,.6-5.95.85-8.88.73-2.92-.11-5.53-.7-7.82-1.77-2.28-1.09-4.01-2.77-5.2-5.04-1.01-2.01-1.53-4.04-1.61-6.07-.08-2.05-.12-4.38-.12-6.97v-24.62h-10.27v-6.89h10.27v-16.13h8.35v16.13h15.28v6.89h-15.28Z"/>
      <path class="cls-2" d="M327.92,90V22.46h8.35v67.54h-8.35Z"/>
      <path class="cls-2" d="M392.5,61.99v28.01h-8.44v-25.38c0-2.41-.21-4.72-.64-6.95-.42-2.21-1.15-4.21-2.2-5.98-1.05-1.76-2.46-3.16-4.22-4.19-1.77-1.03-4-1.55-6.68-1.55-2.1,0-4,.36-5.7,1.06-1.71.7-3.16,1.77-4.38,3.22-1.23,1.44-2.17,3.24-2.84,5.41-.67,2.17-1.01,4.74-1.01,7.67v26.69h-8.44v-50.65h7.5v6.55c1.51-2.05,3.36-3.73,5.56-5.03,3.2-1.89,6.99-2.84,11.33-2.84,3.28,0,6.09.52,8.4,1.55,2.3,1.03,4.23,2.41,5.77,4.1,1.52,1.71,2.73,3.61,3.6,5.73.89,2.1,1.5,4.25,1.85,6.42.37,2.18.54,4.23.54,6.17Z"/>
      <path class="cls-2" d="M415.52,36.68v2.67h13.32v6.89h-13.32v43.76h-8.34v-43.76h-8.59v-6.89h8.59v-1.36c0-1.31.05-2.65.19-4.01.12-1.35.4-2.69.85-3.98.44-1.3,1.15-2.49,2.16-3.59,1.15-1.28,2.42-2.2,3.8-2.74,1.38-.56,2.77-.89,4.19-1.02,1.42-.12,2.78-.19,4.06-.19h6.42v6.95h-5.95c-2.47,0-4.31.6-5.53,1.8-1.22,1.2-1.84,3.03-1.84,5.46Z"/>
      <path class="cls-2" d="M460.13,39.35v7.82c-1.75-.46-3.67-.58-5.77-.37-2.09.22-4.04.99-5.81,2.3-1.63,1.15-2.88,2.57-3.78,4.22-.89,1.65-1.51,3.44-1.85,5.37-.34,1.92-.52,3.88-.52,5.87v25.43h-8.39v-50.65h7.46v8.04c.33-.6.7-1.18,1.1-1.72.95-1.31,2.02-2.39,3.22-3.24,1.31-1.06,2.79-1.87,4.45-2.43,1.67-.56,3.35-.9,5.07-1.01,1.72-.11,3.33.01,4.83.36Z"/>
      <path class="cls-2" d="M505.34,51.52c-.19-1.84-.64-3.53-1.36-5.09-1.43-3.31-3.8-5.8-7.11-7.44-3.29-1.64-7.24-2.46-11.84-2.46-5.72,0-10.33,1.27-13.83,3.8-3.51,2.54-5.86,6.02-7.08,10.47l7.93,2.38c.93-3.12,2.55-5.39,4.84-6.77,2.3-1.39,4.99-2.08,8.04-2.08,4.63,0,7.89,1.07,9.78,3.23,1.69,1.93,2.59,4.83,2.69,8.67-1.77.25-3.63.5-5.57.77-3.06.4-6.09.85-9.08,1.34-2.98.48-5.68,1.05-8.08,1.71-2.57.75-4.76,1.77-6.62,3.07-1.84,1.3-3.27,2.92-4.29,4.88-1.02,1.95-1.52,4.26-1.52,6.92s.65,5.21,1.95,7.5c1.3,2.28,3.22,4.12,5.77,5.5,2.54,1.39,5.72,2.09,9.5,2.09,4.91,0,9.06-1.05,12.49-3.15,2.49-1.52,4.58-3.57,6.26-6.15v9.3h7.41v-32.74c0-2-.09-3.92-.28-5.74ZM497.25,66.1c-.05,1.92-.3,3.67-.78,5.23-.41,2.1-1.28,4.02-2.62,5.8-1.35,1.76-3.12,3.19-5.33,4.26-2.2,1.09-4.8,1.63-7.81,1.63-2.41,0-4.35-.4-5.84-1.18-1.48-.78-2.58-1.8-3.28-3.04-.7-1.26-1.06-2.57-1.06-3.94,0-1.6.37-2.94,1.1-4.01.74-1.09,1.71-1.96,2.91-2.65,1.2-.69,2.5-1.26,3.88-1.69,1.87-.53,3.98-.99,6.32-1.38,2.34-.4,4.83-.77,7.46-1.11,1.68-.22,3.37-.45,5.09-.67-.01.79-.03,1.71-.05,2.77Z"/>
    </g>
  </g>
</svg>
